<svg height="511pt" viewBox="0 -55 511.99904 511" width="511pt" xmlns="http://www.w3.org/2000/svg"><path d="m119.472656 119.984375c-6.976562 0-13.25-4.25-15.851562-10.730469l-18.28125-45.714844-18.28125 45.714844c-2.601563 6.480469-8.875 10.730469-15.851563 10.730469-6.976562 0-13.25-4.25-15.851562-10.730469l-34.128907-85.332031c-3.503906-8.75.753907-18.683594 9.507813-22.179687 8.796875-3.503907 18.691406.75 22.1875 9.515624l18.285156 45.714844 18.28125-45.71875c2.601563-6.480468 8.875-10.730468 15.851563-10.730468 6.976562 0 13.25 4.25 15.851562 10.730468l18.28125 45.71875 18.28125-45.71875c3.5-8.765625 13.382813-13.046875 22.191406-9.515625 8.75 3.5 13.007813 13.433594 9.507813 22.183594l-34.132813 85.328125c-2.597656 6.484375-8.871093 10.734375-15.847656 10.734375zm0 0"/><path d="m290.132812 119.984375c-6.976562 0-13.25-4.25-15.847656-10.730469l-18.285156-45.714844-18.28125 45.714844c-2.601562 6.480469-8.875 10.730469-15.847656 10.730469-6.976563 0-13.25-4.25-15.851563-10.730469l-34.132812-85.332031c-3.5-8.75.757812-18.683594 9.507812-22.179687 8.773438-3.503907 18.691407.75 22.191407 9.515624l18.28125 45.714844 18.28125-45.714844c2.601562-6.484374 8.875-10.734374 15.851562-10.734374s13.25 4.25 15.851562 10.734374l18.28125 45.714844 18.28125-45.714844c3.507813-8.765624 13.390626-13.050781 22.191407-9.515624 8.75 3.5 13.007812 13.433593 9.507812 22.179687l-34.132812 85.332031c-2.597657 6.480469-8.871094 10.730469-15.847657 10.730469zm0 0"/><path d="m460.796875 119.984375c-6.976563 0-13.25-4.25-15.851563-10.730469l-18.28125-45.714844-18.28125 45.714844c-2.601562 6.480469-8.875 10.730469-15.851562 10.730469s-13.25-4.25-15.851562-10.730469l-34.132813-85.332031c-3.5-8.75.757813-18.683594 9.507813-22.179687 8.785156-3.503907 18.683593.75 22.191406 9.515624l18.28125 45.714844 18.285156-45.714844c2.597656-6.484374 8.871094-10.734374 15.847656-10.734374 6.976563 0 13.25 4.25 15.851563 10.734374l18.28125 45.714844 18.28125-45.714844c3.511719-8.765624 13.410156-13.050781 22.191406-9.515624 8.75 3.5 13.007813 13.433593 9.507813 22.179687l-34.132813 85.332031c-2.59375 6.480469-8.871094 10.730469-15.84375 10.730469zm0 0"/><path d="m247.46875 350.378906c-1.890625 0-3.800781-.316406-5.648438-.964844-6.191406-2.167968-10.59375-7.699218-11.308593-14.21875l-17.066407-153.59375c-.707031-6.351562 2.183594-12.550781 7.5-16.082031 5.324219-3.535156 12.183594-3.800781 17.75-.71875l153.59375 85.332031c6.25 3.464844 9.675782 10.484376 8.566407 17.550782-1.097657 7.066406-6.488281 12.699218-13.507813 14.097656l-80.261718 16.050781-47.550782 47.546875c-3.25 3.25-7.617187 5-12.066406 5zm3.550781-139.679687 9.488281 85.433593 26.089844-26.085937c2.382813-2.382813 5.417969-4 8.71875-4.664063l39.804688-7.96875zm0 0"/><path d="m366.949219 401.578125c-5.515625 0-10.925781-2.667969-14.214844-7.597656l-68.265625-102.398438c-5.226562-7.851562-3.109375-18.433593 4.734375-23.667969 7.832031-5.214843 18.414063-3.117187 23.664063 4.734376l68.265624 102.398437c5.222657 7.851563 3.109376 18.433594-4.734374 23.664063-2.910157 1.933593-6.199219 2.867187-9.449219 2.867187zm0 0"/></svg>